<svg xmlns="http://www.w3.org/2000/svg" width="660" height="448" viewBox="0 0 660 448" font-family="Helvetica, Arial, sans-serif" font-size="12">
<rect width="660" height="448" fill="white"/>
<text x="330" y="22" text-anchor="middle" font-size="14" font-weight="bold">LoRA dropout at the winner cell (lr2e-4/r8), test set 2</text>
<line x1="182.0" y1="40" x2="182.0" y2="364" stroke="#e6e6e6"/>
<text x="182.0" y="379" text-anchor="middle" fill="#444" font-size="11">85</text>
<line x1="324.1" y1="40" x2="324.1" y2="364" stroke="#e6e6e6"/>
<text x="324.1" y="379" text-anchor="middle" fill="#444" font-size="11">86</text>
<line x1="466.3" y1="40" x2="466.3" y2="364" stroke="#e6e6e6"/>
<text x="466.3" y="379" text-anchor="middle" fill="#444" font-size="11">87</text>
<line x1="608.5" y1="40" x2="608.5" y2="364" stroke="#e6e6e6"/>
<text x="608.5" y="379" text-anchor="middle" fill="#444" font-size="11">88</text>
<line x1="72" y1="347.5" x2="636" y2="347.5" stroke="#e6e6e6"/>
<text x="66" y="351.5" text-anchor="end" fill="#444" font-size="11">0.240</text>
<line x1="72" y1="231.1" x2="636" y2="231.1" stroke="#e6e6e6"/>
<text x="66" y="235.1" text-anchor="end" fill="#444" font-size="11">0.245</text>
<line x1="72" y1="114.7" x2="636" y2="114.7" stroke="#e6e6e6"/>
<text x="66" y="118.7" text-anchor="end" fill="#444" font-size="11">0.250</text>
<rect x="72" y="40" width="564" height="324" fill="none" stroke="#888"/>
<text x="354" y="396" text-anchor="middle" font-size="12">transfer face_sim</text>
<text transform="translate(28,202) rotate(-90)" text-anchor="middle" font-size="12">cosine_sim</text>
<line x1="597.1" y1="245.1" x2="130.6" y2="162.4" stroke="#1b1b1b" stroke-width="1.6" stroke-opacity="0.8"/>
<polygon points="116.8,160.0 131.8,155.5 129.4,169.3" fill="#1b1b1b" fill-opacity="0.9"/>
<circle cx="597.1" cy="245.1" r="4.5" fill="#1b1b1b" stroke="#1b1b1b" stroke-width="1.5"/>
<circle cx="110.9" cy="158.9" r="4.5" fill="#1b1b1b" stroke="#1b1b1b" stroke-width="1.5"/>
<circle cx="597.1" cy="245.1" r="4.5" fill="#f06292" stroke="#f06292" stroke-width="1.5"/>
<text x="589.1" y="261.1" text-anchor="end" font-size="11" fill="#f06292">dropout 0.0 (control)</text>
<circle cx="110.9" cy="158.9" r="4.5" fill="#a84566" stroke="#a84566" stroke-width="1.5"/>
<text x="102.9" y="162.9" text-anchor="end" font-size="11" fill="#a84566">dropout 0.1</text>
<circle cx="354.0" cy="207.8" r="0" fill="#666" stroke="#666" stroke-width="1.5"/>
<text x="354.0" y="223.8" text-anchor="middle" font-size="11" fill="#666">slope −0.00108</text>
<text x="72" y="422" font-size="10" fill="#666" text-anchor="start">Shade = dropout, darker for higher. The black arrow runs from the control to the dropout arm,</text>
<text x="72" y="436" font-size="10" fill="#666" text-anchor="start">labelled with the trade-off slope (cosine/face).</text>
</svg>