<svg xmlns="http://www.w3.org/2000/svg" width="660" height="448" viewBox="0 0 660 448" font-family="Helvetica, Arial, sans-serif" font-size="12">
<rect width="660" height="448" fill="white"/>
<text x="330" y="22" text-anchor="middle" font-size="14" font-weight="bold">Dataset-size variation at the winner cell (lr2e-4/r8), equal 3000-step budget, test set 2</text>
<line x1="245.5" y1="40" x2="245.5" y2="364" stroke="#e6e6e6"/>
<text x="245.5" y="379" text-anchor="middle" fill="#444" font-size="11">84</text>
<line x1="424.9" y1="40" x2="424.9" y2="364" stroke="#e6e6e6"/>
<text x="424.9" y="379" text-anchor="middle" fill="#444" font-size="11">86</text>
<line x1="604.3" y1="40" x2="604.3" y2="364" stroke="#e6e6e6"/>
<text x="604.3" y="379" text-anchor="middle" fill="#444" font-size="11">88</text>
<line x1="72" y1="312.6" x2="636" y2="312.6" stroke="#e6e6e6"/>
<text x="66" y="316.6" text-anchor="end" fill="#444" font-size="11">0.240</text>
<line x1="72" y1="196.2" x2="636" y2="196.2" stroke="#e6e6e6"/>
<text x="66" y="200.2" text-anchor="end" fill="#444" font-size="11">0.245</text>
<line x1="72" y1="79.8" x2="636" y2="79.8" stroke="#e6e6e6"/>
<text x="66" y="83.8" text-anchor="end" fill="#444" font-size="11">0.250</text>
<rect x="72" y="40" width="564" height="324" fill="none" stroke="#888"/>
<text x="354" y="396" text-anchor="middle" font-size="12">transfer face_sim</text>
<text transform="translate(28,202) rotate(-90)" text-anchor="middle" font-size="12">cosine_sim</text>
<line x1="110.9" y1="175.2" x2="577.6" y2="280.2" stroke="#f06292" stroke-width="1.6" stroke-opacity="0.8"/>
<polygon points="591.2,283.3 576.1,287.1 579.1,273.4" fill="#f06292" fill-opacity="0.9"/>
<circle cx="110.9" cy="175.2" r="4.5" fill="#f06292" stroke="#f06292" stroke-width="1.5"/>
<circle cx="597.1" cy="284.6" r="4.5" fill="#f06292" stroke="#f06292" stroke-width="1.5"/>
<line x1="597.1" y1="284.6" x2="442.7" y2="133.4" stroke="#f06292" stroke-width="1.6" stroke-opacity="0.8"/>
<polygon points="432.7,123.6 447.6,128.4 437.8,138.4" fill="#f06292" fill-opacity="0.9"/>
<circle cx="597.1" cy="284.6" r="4.5" fill="#f06292" stroke="#f06292" stroke-width="1.5"/>
<circle cx="428.5" cy="119.4" r="4.5" fill="#f06292" stroke="#f06292" stroke-width="1.5"/>
<circle cx="597.1" cy="284.6" r="9.5" fill="white" stroke="#f06292" stroke-width="1.5"/>
<circle cx="110.9" cy="175.2" r="3.5" fill="#f06292" stroke="#f06292" stroke-width="1.5"/>
<text x="118.9" y="179.2" text-anchor="start" font-size="11" fill="#f06292">n=10</text>
<circle cx="597.1" cy="284.6" r="5.0" fill="#f06292" stroke="#f06292" stroke-width="1.5"/>
<text x="597.1" y="300.6" text-anchor="middle" font-size="11" fill="#f06292">n=20</text>
<circle cx="428.5" cy="119.4" r="6.5" fill="#f06292" stroke="#f06292" stroke-width="1.5"/>
<text x="436.5" y="123.4" text-anchor="start" font-size="11" fill="#f06292">n=30</text>
<circle cx="354.0" cy="229.9" r="0" fill="#666" stroke="#666" stroke-width="1.5"/>
<text x="354.0" y="245.9" text-anchor="middle" font-size="11" fill="#666">slope −0.00087</text>
<circle cx="512.8" cy="202.0" r="0" fill="#666" stroke="#666" stroke-width="1.5"/>
<text x="520.8" y="206.0" text-anchor="start" font-size="11" fill="#666">slope −0.00378</text>
<text x="72" y="422" font-size="10" fill="#666" text-anchor="start">Marker size = dataset size; arrows follow 10 -> 20 -> 30, each labelled with its slope</text>
<text x="72" y="436" font-size="10" fill="#666" text-anchor="start">(cosine/face); the ring marks the recommended n=20. All three runs read at the 3000-step budget.</text>
</svg>