<svg xmlns="http://www.w3.org/2000/svg" width="860" height="800" viewBox="0 0 860 800" font-family="Helvetica, Arial, sans-serif" font-size="12">
<rect width="860" height="800" fill="white"/>
<text x="430" y="22" text-anchor="middle" font-size="14" font-weight="bold">Pilot (lr1e-4/r16/n20): face_sim and cosine_sim vs. training steps, test set 2</text>
<text x="345" y="44" text-anchor="middle" font-size="12" font-weight="bold">face_sim</text>
<text x="70.0" y="365" text-anchor="middle" fill="#444" font-size="11">500</text>
<text x="253.3" y="365" text-anchor="middle" fill="#444" font-size="11">1000</text>
<text x="436.7" y="365" text-anchor="middle" fill="#444" font-size="11">1500</text>
<text x="620.0" y="365" text-anchor="middle" fill="#444" font-size="11">2000</text>
<line x1="70" y1="214.4" x2="620" y2="214.4" stroke="#e6e6e6"/>
<text x="64" y="218.4" text-anchor="end" fill="#444" font-size="11">50</text>
<line x1="70" y1="70.7" x2="620" y2="70.7" stroke="#e6e6e6"/>
<text x="64" y="74.7" text-anchor="end" fill="#444" font-size="11">100</text>
<rect x="70" y="50" width="550" height="300" fill="none" stroke="#888"/>
<text x="345" y="382" text-anchor="middle" font-size="12">training steps</text>
<text transform="translate(26,200) rotate(-90)" text-anchor="middle" font-size="12">face_sim</text>
<polyline points="70.0,278.8 253.3,102.1 436.7,89.4 620.0,88.5" fill="none" stroke="#1b1b1b" stroke-width="1.6" stroke-opacity="0.85"/>
<circle cx="70.0" cy="278.8" r="4.5" fill="#1b1b1b" stroke="#1b1b1b" stroke-width="1.5"/>
<circle cx="253.3" cy="102.1" r="4.5" fill="#1b1b1b" stroke="#1b1b1b" stroke-width="1.5"/>
<circle cx="436.7" cy="89.4" r="4.5" fill="#1b1b1b" stroke="#1b1b1b" stroke-width="1.5"/>
<circle cx="620.0" cy="88.5" r="4.5" fill="#1b1b1b" stroke="#1b1b1b" stroke-width="1.5"/>
<polyline points="70.0,245.0 253.3,108.5 436.7,98.9 620.0,91.9" fill="none" stroke="#7f7f7f" stroke-width="1.6" stroke-opacity="0.85"/>
<circle cx="70.0" cy="245.0" r="4.5" fill="#7f7f7f" stroke="#7f7f7f" stroke-width="1.5"/>
<circle cx="253.3" cy="108.5" r="4.5" fill="#7f7f7f" stroke="#7f7f7f" stroke-width="1.5"/>
<circle cx="436.7" cy="98.9" r="4.5" fill="#7f7f7f" stroke="#7f7f7f" stroke-width="1.5"/>
<circle cx="620.0" cy="91.9" r="4.5" fill="#7f7f7f" stroke="#7f7f7f" stroke-width="1.5"/>
<polyline points="70.0,271.9 253.3,155.0 436.7,137.0 620.0,137.3" fill="none" stroke="#7b3294" stroke-width="1.6" stroke-opacity="0.85"/>
<circle cx="70.0" cy="271.9" r="4.5" fill="#7b3294" stroke="#7b3294" stroke-width="1.5"/>
<circle cx="253.3" cy="155.0" r="4.5" fill="#7b3294" stroke="#7b3294" stroke-width="1.5"/>
<circle cx="436.7" cy="137.0" r="4.5" fill="#7b3294" stroke="#7b3294" stroke-width="1.5"/>
<circle cx="620.0" cy="137.3" r="4.5" fill="#7b3294" stroke="#7b3294" stroke-width="1.5"/>
<polyline points="70.0,313.0 253.3,175.5 436.7,160.1 620.0,159.3" fill="none" stroke="#c9a227" stroke-width="1.6" stroke-opacity="0.85"/>
<circle cx="70.0" cy="313.0" r="4.5" fill="#c9a227" stroke="#c9a227" stroke-width="1.5"/>
<circle cx="253.3" cy="175.5" r="4.5" fill="#c9a227" stroke="#c9a227" stroke-width="1.5"/>
<circle cx="436.7" cy="160.1" r="4.5" fill="#c9a227" stroke="#c9a227" stroke-width="1.5"/>
<circle cx="620.0" cy="159.3" r="4.5" fill="#c9a227" stroke="#c9a227" stroke-width="1.5"/>
<polyline points="70.0,314.1 253.3,213.4 436.7,197.9 620.0,191.8" fill="none" stroke="#8c564b" stroke-width="1.6" stroke-opacity="0.85"/>
<circle cx="70.0" cy="314.1" r="4.5" fill="#8c564b" stroke="#8c564b" stroke-width="1.5"/>
<circle cx="253.3" cy="213.4" r="4.5" fill="#8c564b" stroke="#8c564b" stroke-width="1.5"/>
<circle cx="436.7" cy="197.9" r="4.5" fill="#8c564b" stroke="#8c564b" stroke-width="1.5"/>
<circle cx="620.0" cy="191.8" r="4.5" fill="#8c564b" stroke="#8c564b" stroke-width="1.5"/>
<rect x="649" y="56" width="201" height="91" fill="white" fill-opacity="0.92" stroke="#bbb"/>
<circle cx="661.0" cy="68.0" r="4" fill="#1b1b1b" stroke="#1b1b1b" stroke-width="1.5"/>
<text x="671" y="72">identity_only 93.8</text>
<circle cx="661.0" cy="85.0" r="4" fill="#7f7f7f" stroke="#7f7f7f" stroke-width="1.5"/>
<text x="671" y="89">product_conditioning 92.6</text>
<circle cx="661.0" cy="102.0" r="4" fill="#7b3294" stroke="#7b3294" stroke-width="1.5"/>
<text x="671" y="106">style_shift 76.8</text>
<circle cx="661.0" cy="119.0" r="4" fill="#c9a227" stroke="#c9a227" stroke-width="1.5"/>
<text x="671" y="123">outfit_shift 69.2</text>
<circle cx="661.0" cy="136.0" r="4" fill="#8c564b" stroke="#8c564b" stroke-width="1.5"/>
<text x="671" y="140">context_shift 57.9</text>
<text x="345" y="424" text-anchor="middle" font-size="12" font-weight="bold">cosine_sim (same y-span as the bucket spread)</text>
<text x="70.0" y="745" text-anchor="middle" fill="#444" font-size="11">500</text>
<text x="253.3" y="745" text-anchor="middle" fill="#444" font-size="11">1000</text>
<text x="436.7" y="745" text-anchor="middle" fill="#444" font-size="11">1500</text>
<text x="620.0" y="745" text-anchor="middle" fill="#444" font-size="11">2000</text>
<line x1="70" y1="694.9" x2="620" y2="694.9" stroke="#e6e6e6"/>
<text x="64" y="698.9" text-anchor="end" fill="#444" font-size="11">0.20</text>
<line x1="70" y1="551.3" x2="620" y2="551.3" stroke="#e6e6e6"/>
<text x="64" y="555.3" text-anchor="end" fill="#444" font-size="11">0.25</text>
<rect x="70" y="430" width="550" height="300" fill="none" stroke="#888"/>
<text x="345" y="762" text-anchor="middle" font-size="12">training steps</text>
<text transform="translate(26,580) rotate(-90)" text-anchor="middle" font-size="12">cosine_sim</text>
<polyline points="70.0,688.9 253.3,687.5 436.7,689.5 620.0,692.1" fill="none" stroke="#1b1b1b" stroke-width="1.6" stroke-opacity="0.85"/>
<circle cx="70.0" cy="688.9" r="4.5" fill="#1b1b1b" stroke="#1b1b1b" stroke-width="1.5"/>
<circle cx="253.3" cy="687.5" r="4.5" fill="#1b1b1b" stroke="#1b1b1b" stroke-width="1.5"/>
<circle cx="436.7" cy="689.5" r="4.5" fill="#1b1b1b" stroke="#1b1b1b" stroke-width="1.5"/>
<circle cx="620.0" cy="692.1" r="4.5" fill="#1b1b1b" stroke="#1b1b1b" stroke-width="1.5"/>
<polyline points="70.0,517.9 253.3,530.3 436.7,527.4 620.0,526.0" fill="none" stroke="#7f7f7f" stroke-width="1.6" stroke-opacity="0.85"/>
<circle cx="70.0" cy="517.9" r="4.5" fill="#7f7f7f" stroke="#7f7f7f" stroke-width="1.5"/>
<circle cx="253.3" cy="530.3" r="4.5" fill="#7f7f7f" stroke="#7f7f7f" stroke-width="1.5"/>
<circle cx="436.7" cy="527.4" r="4.5" fill="#7f7f7f" stroke="#7f7f7f" stroke-width="1.5"/>
<circle cx="620.0" cy="526.0" r="4.5" fill="#7f7f7f" stroke="#7f7f7f" stroke-width="1.5"/>
<polyline points="70.0,645.5 253.3,643.2 436.7,647.8 620.0,647.8" fill="none" stroke="#7b3294" stroke-width="1.6" stroke-opacity="0.85"/>
<circle cx="70.0" cy="645.5" r="4.5" fill="#7b3294" stroke="#7b3294" stroke-width="1.5"/>
<circle cx="253.3" cy="643.2" r="4.5" fill="#7b3294" stroke="#7b3294" stroke-width="1.5"/>
<circle cx="436.7" cy="647.8" r="4.5" fill="#7b3294" stroke="#7b3294" stroke-width="1.5"/>
<circle cx="620.0" cy="647.8" r="4.5" fill="#7b3294" stroke="#7b3294" stroke-width="1.5"/>
<polyline points="70.0,567.6 253.3,582.9 436.7,584.6 620.0,580.0" fill="none" stroke="#c9a227" stroke-width="1.6" stroke-opacity="0.85"/>
<circle cx="70.0" cy="567.6" r="4.5" fill="#c9a227" stroke="#c9a227" stroke-width="1.5"/>
<circle cx="253.3" cy="582.9" r="4.5" fill="#c9a227" stroke="#c9a227" stroke-width="1.5"/>
<circle cx="436.7" cy="584.6" r="4.5" fill="#c9a227" stroke="#c9a227" stroke-width="1.5"/>
<circle cx="620.0" cy="580.0" r="4.5" fill="#c9a227" stroke="#c9a227" stroke-width="1.5"/>
<polyline points="70.0,473.7 253.3,474.3 436.7,473.1 620.0,470.5" fill="none" stroke="#8c564b" stroke-width="1.6" stroke-opacity="0.85"/>
<circle cx="70.0" cy="473.7" r="4.5" fill="#8c564b" stroke="#8c564b" stroke-width="1.5"/>
<circle cx="253.3" cy="474.3" r="4.5" fill="#8c564b" stroke="#8c564b" stroke-width="1.5"/>
<circle cx="436.7" cy="473.1" r="4.5" fill="#8c564b" stroke="#8c564b" stroke-width="1.5"/>
<circle cx="620.0" cy="470.5" r="4.5" fill="#8c564b" stroke="#8c564b" stroke-width="1.5"/>
<rect x="636" y="436" width="214" height="91" fill="white" fill-opacity="0.92" stroke="#bbb"/>
<circle cx="647.8" cy="448.0" r="4" fill="#1b1b1b" stroke="#1b1b1b" stroke-width="1.5"/>
<text x="658" y="452">identity_only 0.2010</text>
<circle cx="647.8" cy="465.0" r="4" fill="#7f7f7f" stroke="#7f7f7f" stroke-width="1.5"/>
<text x="658" y="469">product_conditioning 0.2588</text>
<circle cx="647.8" cy="482.0" r="4" fill="#7b3294" stroke="#7b3294" stroke-width="1.5"/>
<text x="658" y="486">style_shift 0.2164</text>
<circle cx="647.8" cy="499.0" r="4" fill="#c9a227" stroke="#c9a227" stroke-width="1.5"/>
<text x="658" y="503">outfit_shift 0.2400</text>
<circle cx="647.8" cy="516.0" r="4" fill="#8c564b" stroke="#8c564b" stroke-width="1.5"/>
<text x="658" y="520">context_shift 0.2781</text>
</svg>